<?xml version="1.0" encoding="iso-8859-1"?>
<!-- Uploaded to: SVG Repo, www.svgrepo.com, Generator: SVG Repo Mixer Tools -->
<svg version="1.1" id="Layer_1" xmlns="http://www.w3.org/2000/svg" xmlns:xlink="http://www.w3.org/1999/xlink" 
	 viewBox="0 0 512.001 512.001" xml:space="preserve">
<path style="fill:#FFFFFF;" d="M102.381,284.081h307.248c8.638,0,15.64,7.002,15.64,15.64v192.64c0,8.638-7.002,15.64-15.64,15.64
	H102.381c-8.638,0-15.64-7.002-15.64-15.64V299.72C86.741,291.083,93.743,284.081,102.381,284.081z"/>
<path style="fill:#CCCCCC;" d="M409.605,288.08c6.427,0.005,11.635,5.214,11.64,11.64v192.64c-0.005,6.427-5.214,11.635-11.64,11.64
	h-307.2c-6.427-0.005-11.635-5.214-11.64-11.64V299.72c0.005-6.427,5.214-11.635,11.64-11.64L409.605,288.08 M409.605,280.08h-307.2
	c-10.834,0.031-19.609,8.806-19.64,19.64v192.64c0.031,10.834,8.806,19.609,19.64,19.64h307.201
	c10.834-0.031,19.609-8.806,19.64-19.64V299.72C429.214,288.886,420.439,280.111,409.605,280.08z"/>
<rect x="82.738" y="316.073" width="346.524" height="54.144"/>
<g>
	<rect x="121.209" y="411.451" style="fill:#999999;" width="123.556" height="10.832"/>
	<rect x="121.209" y="441.961" style="fill:#999999;" width="74.384" height="10.832"/>
</g>
<circle style="fill:#E21B1B;" cx="311.811" cy="440.542" r="36.935"/>
<circle style="fill:#FF3333;" cx="356.793" cy="440.542" r="36.935"/>
<rect x="131.968" y="129.592" style="fill:#939393;" width="64.373" height="82.257"/>
<rect x="223.819" y="66.453" style="fill:#E21B1B;" width="64.373" height="145.396"/>
<rect x="315.669" width="64.373" height="211.849"/>
</svg>