<?xml version="1.0" encoding="iso-8859-1"?>
<!-- Uploaded to: SVG Repo, www.svgrepo.com, Generator: SVG Repo Mixer Tools -->
<svg version="1.1" id="Layer_1" xmlns="http://www.w3.org/2000/svg" xmlns:xlink="http://www.w3.org/1999/xlink"
	 viewBox="0 0 480 480" xml:space="preserve">
<g>
	<rect x="408" y="368" style="fill:#7AC943;" width="56" height="16"/>
	<rect x="240" y="368" style="fill:#7AC943;" width="120" height="16"/>
</g>
<rect x="368" y="192" style="fill:#FFC600;" width="96" height="16"/>
<g>
	<rect x="296" y="280" style="fill:#1D9AAE;" width="168" height="16"/>
	<rect x="240" y="104" style="fill:#1D9AAE;" width="224" height="16"/>
</g>
<g>
	<path style="fill:#E94545;" d="M41.6,376c8.8,28.8,34.4,49.6,62.4,49.6s53.6-20.8,62.4-49.6h24c-8.8,40.8-46.4,72-86.4,72
		s-77.6-31.2-86.4-72H41.6z"/>
	<path style="fill:#E94545;" d="M104,294.4c-30.4,0-54.4,16-62.4,41.6h-24c8.8-37.6,44-64,86.4-64s77.6,26.4,86.4,64h-24
		C158.4,310.4,134.4,294.4,104,294.4z"/>
</g>
<g>
	<path style="fill:#FF7D00;" d="M38.4,120c0,30.4,20.8,56,49.6,63.2v24c-40.8-8-72-44.8-72-87.2s31.2-79.2,72-86.4v24
		C59.2,64.8,38.4,89.6,38.4,120z"/>
	<path style="fill:#FF7D00;" d="M170.4,118.4c0-27.2-16.8-51.2-42.4-60.8v-24c37.6,10.4,64.8,44.8,64.8,84.8s-28,76.8-64.8,87.2v-24
		C152.8,172,170.4,146.4,170.4,118.4z"/>
</g>
<g>
	<path style="fill:#42210B;" d="M464,384v-16h-56v16H464z M480,360v32c0,4-4,8-8,8h-72c-4,0-8-4-8-8v-32c0-4,4-8,8-8h72
		C476,352,480,356,480,360z"/>
	<path style="fill:#42210B;" d="M464,208v-16h-96v16H464z M352,216v-32c0-4,4-8,8-8h112c4,0,8,4,8,8v32c0,4-4,8-8,8H360
		C356,224,352,220,352,216z"/>
	<path style="fill:#42210B;" d="M288,264h184c4,0,8,4,8,8v32c0,4-4,8-8,8H288c-4,0-8-4-8-8v-32C280,268,284,264,288,264z M296,296
		h168v-16H296V296z"/>
	<path style="fill:#42210B;" d="M232,88h240c4,0,8,3.2,8,8v32c0,4-4,8-8,8H232c-4,0-8-4-8-8V96C224,91.2,228,88,232,88z M240,120
		h224v-16H240V120z"/>
	<path style="fill:#42210B;" d="M232,352h136c4,0,8,4,8,8v32c0,4-4,8-8,8H232c-4,0-8-4-8-8v-32C224,356,228,352,232,352z M240,384
		h120v-16H240V384z"/>
	<path style="fill:#42210B;" d="M170.4,118.4c0,28-17.6,53.6-42.4,63.2v24c36.8-10.4,64.8-47.2,64.8-87.2S165.6,44,128,33.6v24
		C153.6,67.2,170.4,91.2,170.4,118.4z M112,64V24c0-2.4,0.8-4.8,3.2-6.4c1.6-0.8,4-1.6,6.4-1.6c51.2,8,88,51.2,88,102.4
		c0,52-37.6,97.6-88,104.8c-0.8,0-0.8,0-1.6,0c-1.6,0-4-0.8-4.8-1.6c-2.4-0.8-3.2-3.2-3.2-5.6v-40c0-4,2.4-7.2,5.6-8
		c21.6-5.6,36.8-26.4,36.8-49.6c0-22.4-14.4-40.8-36.8-47.2C114.4,71.2,112,67.2,112,64z"/>
	<path style="fill:#42210B;" d="M104,425.6c-28,0-53.6-20.8-62.4-49.6h-24c9.6,40.8,46.4,72,86.4,72s77.6-31.2,86.4-72h-24
		C157.6,404.8,132,425.6,104,425.6z M56,366.4c4,20.8,22.4,43.2,48,43.2s44-22.4,48-43.2c0.8-4,4-6.4,8-6.4h40
		c2.4,0,4.8,0.8,6.4,2.4c1.6,1.6,2.4,4,1.6,6.4c-6.4,53.6-52,95.2-104,95.2S6.4,422.4,0,368.8c0-2.4,0-4.8,1.6-6.4s4-2.4,6.4-2.4h40
		C52,360,55.2,362.4,56,366.4z"/>
	<path style="fill:#42210B;" d="M41.6,336c8-25.6,32-41.6,62.4-41.6s54.4,16,62.4,41.6h24c-8.8-37.6-44-64-86.4-64
		s-77.6,26.4-86.4,64H41.6z M104,310.4c-25.6,0-44,13.6-48,35.2c-0.8,4-4,6.4-8,6.4H8c-2.4,0-4.8-0.8-6.4-2.4
		c-0.8-1.6-1.6-4-1.6-6.4C5.6,292.8,49.6,256,104,256s98.4,36.8,104,87.2c0,2.4,0,4.8-1.6,6.4c-1.6,1.6-4,2.4-6.4,2.4h-40
		c-4,0-7.2-2.4-8-6.4C148,324,129.6,310.4,104,310.4z"/>
	<path style="fill:#42210B;" d="M95.2,224C41.6,220,0,173.6,0,120C0,65.6,41.6,20,95.2,16c2.4,0,4.8,0.8,6.4,2.4
		c1.6,0.8,2.4,3.2,2.4,5.6v40c0,4-3.2,7.2-7.2,8C72,75.2,54.4,95.2,54.4,120s17.6,44.8,42.4,48.8c4,0.8,7.2,4,7.2,8v40
		c0,2.4-0.8,4-2.4,5.6C100,223.2,98.4,224,95.2,224C96,224,95.2,224,95.2,224z M88,32.8c-40.8,8-72,44-72,87.2s31.2,80,72,87.2v-24
		C59.2,176,38.4,150.4,38.4,120S59.2,64.8,88,57.6V32.8z"/>
</g>
</svg>
